<svg xmlns="http://www.w3.org/2000/svg" xmlns:xlink="http://www.w3.org/1999/xlink" width="141.405" height="46.227" viewBox="0 0 141.405 46.227"><defs><style>.a,.c{fill:#fff;}.a{stroke:rgba(0,0,0,0);}.b{fill:#fa7268;}.d{filter:url(#a);}</style><filter id="a" x="0" y="0" width="141.405" height="46.227" filterUnits="userSpaceOnUse"><feOffset dy="3" input="SourceAlpha"/><feGaussianBlur stdDeviation="3" result="b"/><feFlood flood-opacity="0.161"/><feComposite operator="in" in2="b"/><feComposite in="SourceGraphic"/></filter></defs><g transform="translate(9.5 6.281)"><g class="d" transform="matrix(1, 0, 0, 1, -9.5, -6.28)"><path class="a" d="M57.374,17.816V15.921H54.9V12.254h2.476V3.948h3.667v8.306h6.112v3.667H61.041v1.895a5.738,5.738,0,0,0,5.745,5.745v3.666A9.415,9.415,0,0,1,57.374,17.816Zm44.578,6.661a9.26,9.26,0,0,1,6.571-15.829c2.352,0,5.163,1.345,7.853,3.973L106.017,22.98a5.384,5.384,0,0,0,2.506.581,5.6,5.6,0,0,0,4-1.65l2.567,2.566a9.369,9.369,0,0,1-13.14,0Zm2.567-10.572a5.594,5.594,0,0,0-1.651,4,5.4,5.4,0,0,0,.581,2.506l7.609-7.61a6.642,6.642,0,0,0-2.536-.55A5.513,5.513,0,0,0,104.519,13.905ZM21.3,24.477A9.26,9.26,0,0,1,27.867,8.648c2.352,0,5.163,1.345,7.853,3.973L25.361,22.98a5.384,5.384,0,0,0,2.506.581,5.6,5.6,0,0,0,4-1.65l2.567,2.566a9.369,9.369,0,0,1-13.14,0Zm2.567-10.572a5.593,5.593,0,0,0-1.65,4,5.4,5.4,0,0,0,.58,2.506L30.4,12.8a6.642,6.642,0,0,0-2.536-.55A5.513,5.513,0,0,0,23.864,13.905ZM6.021,16.867H3.973V27.044H0V.122H10.452a8.335,8.335,0,0,1,8.434,8.342,8.445,8.445,0,0,1-7.762,8.373l8.311,10.207-5.164.03ZM3.973,12.9h6.478a4.4,4.4,0,1,0,0-8.8H3.973ZM50.062,27.044V16.837a4.3,4.3,0,0,0-4.31-4.307,4.239,4.239,0,0,0-4.277,4.125V27.044H37.807V8.832h3.668v1.283a7.9,7.9,0,0,1,4.277-1.252,7.982,7.982,0,0,1,7.976,7.976V27.044Zm67.789-2.322a2.257,2.257,0,0,1,2.262-2.261,2.282,2.282,0,0,1,2.291,2.261,2.309,2.309,0,0,1-2.291,2.292A2.284,2.284,0,0,1,117.851,24.722Zm-25.3,2.292V2.206L94.556.149h1.956V27.014Zm-22.032,0V.179H72.5l1.989,2.031v6.04l0,0V11.7l0,0v6.021l0,0v9.291Zm5.141-8.559V12.464l7.872,8.617,7.987-8.746v6.1l-7.926,7.5Zm42.715.859V0h3.666V19.313ZM75.657,9V2.955l7.872,8.04,7.987-8.181V8.971L83.59,17.382Z" transform="translate(9.5 6.5)"/></g><g transform="translate(75.657 2.814)"><path class="b" d="M854.309,443.449v5.991l7.934,7.485,7.926-7.5v-6.1l-7.987,8.746Z" transform="translate(-854.309 -433.799)"/><path class="b" d="M862.181,441.7l-7.872-8.04v6.047l7.934,8.38,7.926-8.411v-6.157Z" transform="translate(-854.309 -433.522)"/></g><path class="c" d="M776.448,457.674V430.752H786.9a8.335,8.335,0,0,1,8.434,8.342,8.445,8.445,0,0,1-7.762,8.373l8.311,10.207-5.163.03L782.469,447.5h-2.047v10.177ZM786.9,443.525a4.4,4.4,0,1,0,0-8.8h-6.478v8.8Z" transform="translate(-776.448 -430.63)"/><path class="c" d="M811.427,455.355a9.291,9.291,0,1,1-6.57-15.829c2.352,0,5.163,1.345,7.853,3.972l-10.359,10.359a5.384,5.384,0,0,0,2.506.581,5.6,5.6,0,0,0,4-1.65Zm-11.643-4.064,7.609-7.609a6.642,6.642,0,0,0-2.536-.55,5.513,5.513,0,0,0-4,1.651,5.593,5.593,0,0,0-1.65,4A5.394,5.394,0,0,0,799.784,451.291Z" transform="translate(-776.99 -430.878)"/><path class="c" d="M827.611,457.927V447.721a4.3,4.3,0,0,0-4.309-4.308,4.24,4.24,0,0,0-4.278,4.125v10.389h-3.668V439.715h3.668V441a7.894,7.894,0,0,1,4.278-1.252,7.981,7.981,0,0,1,7.976,7.976v10.207Z" transform="translate(-777.549 -430.883)"/><path class="c" d="M832.945,443h2.476v-8.306h3.667V443H845.2v3.667h-6.112v1.895a5.738,5.738,0,0,0,5.745,5.745v3.666a9.415,9.415,0,0,1-9.412-9.411v-1.895h-2.476Z" transform="translate(-778.047 -430.741)"/><path class="c" d="M894.432,455.355a9.291,9.291,0,1,1-6.57-15.829c2.352,0,5.163,1.345,7.853,3.972l-10.359,10.359a5.383,5.383,0,0,0,2.506.581,5.6,5.6,0,0,0,4-1.65Zm-11.643-4.064,7.609-7.609a6.64,6.64,0,0,0-2.536-.55,5.514,5.514,0,0,0-4,1.651,5.594,5.594,0,0,0-1.651,4A5.4,5.4,0,0,0,882.789,451.291Z" transform="translate(-779.339 -430.878)"/><path class="c" d="M899.994,453.087a2.282,2.282,0,0,1,2.291,2.261,2.309,2.309,0,0,1-2.291,2.292,2.284,2.284,0,0,1-2.262-2.292A2.257,2.257,0,0,1,899.994,453.087Zm-1.741-3.147V430.626h3.666v19.313Z" transform="translate(-779.881 -430.626)"/><path class="c" d="M852.993,442.336l0,0v-3.454l0,0v-6.04L851,430.81h-1.987v26.835h3.973v-9.291l0,0Z" transform="translate(-778.502 -430.631)"/><path class="c" d="M873.7,430.779l-2.009,2.057v24.807h3.965V430.779Z" transform="translate(-779.144 -430.63)"/></g></svg>